<svg width="32" height="32" viewBox="0 0 32 32" fill="none" xmlns="http://www.w3.org/2000/svg">
<g id="Huge-icon/files and folder/outline/folder-search 01">
<path id="Vector" d="M12.0001 24.0014L14.0001 22.0014M20.0001 19.3347C20.0001 21.1757 18.5077 22.6681 16.6667 22.6681C14.8258 22.6681 13.3334 21.1757 13.3334 19.3347C13.3334 17.4938 14.8258 16.0014 16.6667 16.0014C18.5077 16.0014 20.0001 17.4938 20.0001 19.3347ZM26.6667 9.33464V10.668H5.33341V6.66797C5.33341 4.45883 7.12427 2.66797 9.33341 2.66797H12.759C13.6497 2.66797 14.515 2.96528 15.2176 3.51277L16.4715 4.48984C17.1741 5.03733 18.0393 5.33464 18.9301 5.33464H22.6667C24.8759 5.33464 26.6667 7.1255 26.6667 9.33464ZM4.63204 10.668H27.3681C29.0658 10.668 30.3313 12.2333 29.9756 13.8934L27.5701 25.1188C27.0432 27.5778 24.8701 29.3346 22.3552 29.3346H9.64496C7.13009 29.3346 4.95695 27.5778 4.43001 25.1188L2.02457 13.8934C1.66885 12.2333 2.93432 10.668 4.63204 10.668Z" stroke="white" stroke-width="2" stroke-linecap="round" stroke-linejoin="round"/>
</g>
</svg>
