<svg width="32" height="32" viewBox="0 0 32 32" fill="none" xmlns="http://www.w3.org/2000/svg">
<g id="Huge-icon/navigation maps/outline/map-people">
<path id="combo shape" d="M16.8162 10.7119C14.9617 9.36941 13.263 7.68384 10.6667 7.97444C8.17705 8.25312 5.14671 10.3173 3.62961 11.4644C3.00725 11.9349 2.66675 12.6772 2.66675 13.4575V26.35C2.66675 27.488 4.03728 28.1478 4.98177 27.5131C6.59442 26.4295 8.785 25.1989 10.6667 24.9882C15.0912 24.493 16.909 29.7369 21.3334 29.2417C23.8231 28.963 26.8535 26.8989 28.3705 25.7518C28.9929 25.2812 29.3334 24.5389 29.3334 23.7587V10.8661C29.3334 9.72817 27.9629 9.0683 27.0184 9.703C26.6163 9.9732 26.1783 10.2525 25.7181 10.5229" stroke="white" stroke-width="1.5"/>
<path id="Vector" d="M24.8897 14.7435L24.5571 13.8005L24.8897 14.7435ZM16.7123 10.67L15.8465 10.1697L15.8465 10.1697L16.7123 10.67ZM26.1748 11.0945L25.2675 11.515L26.1748 11.0945ZM17.1522 10.0234L17.9357 10.6447L17.1522 10.0234ZM23 5.33464C23 6.25511 22.2538 7.0013 21.3333 7.0013V9.0013C23.3584 9.0013 25 7.35968 25 5.33464H23ZM21.3333 7.0013C20.4129 7.0013 19.6667 6.25511 19.6667 5.33464H17.6667C17.6667 7.35968 19.3083 9.0013 21.3333 9.0013V7.0013ZM19.6667 5.33464C19.6667 4.41416 20.4129 3.66797 21.3333 3.66797V1.66797C19.3083 1.66797 17.6667 3.30959 17.6667 5.33464H19.6667ZM21.3333 3.66797C22.2538 3.66797 23 4.41416 23 5.33464H25C25 3.30959 23.3584 1.66797 21.3333 1.66797V3.66797ZM23 16.0013V18.668H25V16.0013H23ZM19.6667 18.668V16.0013H17.6667V18.668H19.6667ZM21.3333 20.3346C20.4129 20.3346 19.6667 19.5884 19.6667 18.668H17.6667C17.6667 20.693 19.3083 22.3346 21.3333 22.3346V20.3346ZM23 18.668C23 19.5884 22.2538 20.3346 21.3333 20.3346V22.3346C23.3584 22.3346 25 20.693 25 18.668H23ZM15 13.3346C15 14.6233 16.0447 15.668 17.3333 15.668V13.668C17.1492 13.668 17 13.5187 17 13.3346H15ZM19.6667 16.0013C19.6667 14.7126 18.622 13.668 17.3333 13.668V15.668C17.5174 15.668 17.6667 15.8172 17.6667 16.0013H19.6667ZM25.6667 13.3346C25.6667 13.5187 25.5174 13.668 25.3333 13.668V15.668C26.622 15.668 27.6667 14.6233 27.6667 13.3346H25.6667ZM25 16.0013C25 15.8577 25.0914 15.7328 25.2223 15.6866L24.5571 13.8005C23.6514 14.1199 23 14.9833 23 16.0013H25ZM25.2223 15.6866C25.2558 15.6748 25.2927 15.668 25.3333 15.668V13.668C25.0629 13.668 24.8012 13.7144 24.5571 13.8005L25.2223 15.6866ZM15.8465 10.1697C15.3079 11.1017 15 12.1837 15 13.3346H17C17 12.5444 17.2106 11.8063 17.5782 11.1704L15.8465 10.1697ZM21.3333 9.0013C23.075 9.0013 24.5787 10.0288 25.2675 11.515L27.0821 10.674C26.0779 8.50738 23.8825 7.0013 21.3333 7.0013V9.0013ZM25.2675 11.515C25.5234 12.067 25.6667 12.6827 25.6667 13.3346H27.6667C27.6667 12.3863 27.4576 11.4841 27.0821 10.674L25.2675 11.515ZM21.3333 7.0013C19.3208 7.0013 17.5271 7.94118 16.3686 9.402L17.9357 10.6447C18.7311 9.6417 19.9571 9.0013 21.3333 9.0013V7.0013ZM16.3686 9.402C16.1767 9.64403 16.002 9.90053 15.8465 10.1697L17.5782 11.1704C17.6845 10.9863 17.8041 10.8106 17.9357 10.6447L16.3686 9.402Z" fill="white"/>
</g>
</svg>
