<svg width="32" height="32" viewBox="0 0 32 32" fill="none" xmlns="http://www.w3.org/2000/svg">
<g id="Huge-icon/finance and payment/outline/mobile payment">
<path id="Vector" d="M24 20.0013H16V9.33464H24M24 20.0013C25.4728 20.0013 26.6667 18.8074 26.6667 17.3346V12.0013C26.6667 10.5285 25.4728 9.33464 24 9.33464M24 20.0013V26.668C24 28.1407 22.8061 29.3346 21.3333 29.3346H10.6667C9.19391 29.3346 8 28.1407 8 26.668V5.33464C8 3.86188 9.19391 2.66797 10.6667 2.66797H21.3333C22.8061 2.66797 24 3.86188 24 5.33464V9.33464" stroke="white" stroke-width="2" stroke-linejoin="round"/>
<path id="Ellipse 811" d="M17.3334 25.3333C17.3334 26.0697 16.7365 26.6667 16.0001 26.6667C15.2637 26.6667 14.6667 26.0697 14.6667 25.3333C14.6667 24.597 15.2637 24 16.0001 24C16.7365 24 17.3334 24.597 17.3334 25.3333Z" fill="#28303F"/>
<path id="Vector 2145" d="M26.6667 13.332L16.0001 13.332" stroke="#28303F" stroke-width="1.5" stroke-linecap="round" stroke-linejoin="round"/>
</g>
</svg>
