<svg width="32" height="32" viewBox="0 0 32 32" fill="none" xmlns="http://www.w3.org/2000/svg">
<g id="Huge-icon/notes and task/outline/notes-edit-search">
<path id="Vector" d="M28 13.3346V10.0013C28 7.05578 25.6122 4.66797 22.6667 4.66797H9.33333C6.38781 4.66797 4 7.05578 4 10.0013V24.0013C4 26.9468 6.38781 29.3346 9.33333 29.3346H12M10.6667 2.66797V6.66797M21.3333 2.66797V6.66797M13.3333 17.3346L12 18.668M16 29.3346L20.081 28.1712C20.2998 28.1088 20.4991 27.9917 20.6599 27.8308L27.3464 21.1444C28.2179 20.2728 28.2179 18.8598 27.3464 17.9883C26.4748 17.1168 25.0618 17.1168 24.1903 17.9883L17.5038 24.6747C17.343 24.8356 17.2258 25.0348 17.1634 25.2536L16 29.3346ZM12.6667 14.668C12.6667 16.5089 14.1591 18.0013 16 18.0013C17.8409 18.0013 19.3333 16.5089 19.3333 14.668C19.3333 12.827 17.8409 11.3346 16 11.3346C14.1591 11.3346 12.6667 12.827 12.6667 14.668Z" stroke="white" stroke-width="2" stroke-linecap="round"/>
</g>
</svg>
